<svg width="25" height="19" viewBox="0 0 25 19" fill="none" xmlns="http://www.w3.org/2000/svg">
<path d="M22.6562 3.25H13.2812L10.1562 0.125H2.34375C1.04932 0.125 0 1.17432 0 2.46875V16.5312C0 17.8257 1.04932 18.875 2.34375 18.875H22.6562C23.9507 18.875 25 17.8257 25 16.5312V5.59375C25 4.29932 23.9507 3.25 22.6562 3.25ZM17.9688 11.4531C17.9688 11.8848 17.6191 12.2344 17.1875 12.2344H13.6719V15.75C13.6719 16.1816 13.3223 16.5312 12.8906 16.5312H12.1094C11.6777 16.5312 11.3281 16.1816 11.3281 15.75V12.2344H7.8125C7.38086 12.2344 7.03125 11.8848 7.03125 11.4531V10.6719C7.03125 10.2402 7.38086 9.89062 7.8125 9.89062H11.3281V6.375C11.3281 5.94336 11.6777 5.59375 12.1094 5.59375H12.8906C13.3223 5.59375 13.6719 5.94336 13.6719 6.375V9.89062H17.1875C17.6191 9.89062 17.9688 10.2402 17.9688 10.6719V11.4531Z" fill="white"/>
</svg>
