<svg width="20" height="35" viewBox="0 0 20 35" fill="none" xmlns="http://www.w3.org/2000/svg">
<path d="M7.65625 21.6658V32.3771L9.16152 34.6343C9.48623 35.121 10.202 35.121 10.5267 34.6343L12.0312 32.3771V21.6658C11.321 21.7971 10.5916 21.875 9.84375 21.875C9.0959 21.875 8.3665 21.7971 7.65625 21.6658ZM9.84375 0C4.40713 0 0 4.40713 0 9.84375C0 15.2804 4.40713 19.6875 9.84375 19.6875C15.2804 19.6875 19.6875 15.2804 19.6875 9.84375C19.6875 4.40713 15.2804 0 9.84375 0ZM9.84375 5.19531C7.28027 5.19531 5.19531 7.28027 5.19531 9.84375C5.19531 10.2963 4.82754 10.6641 4.375 10.6641C3.92246 10.6641 3.55469 10.2963 3.55469 9.84375C3.55469 6.37588 6.37656 3.55469 9.84375 3.55469C10.2963 3.55469 10.6641 3.92246 10.6641 4.375C10.6641 4.82754 10.2963 5.19531 9.84375 5.19531Z" fill="#BDBDBD"/>
</svg>
