<svg width="27" height="25" viewBox="0 0 27 25" fill="none" xmlns="http://www.w3.org/2000/svg">
<path d="M25.771 14.0625H14.1846L21.9009 21.7788C22.1958 22.0737 22.6812 22.0976 22.9844 21.812C24.874 20.0317 26.1739 17.6318 26.5552 14.9341C26.6206 14.4722 26.2373 14.0625 25.771 14.0625ZM24.9981 10.8984C24.5957 5.06542 19.9346 0.404292 14.1016 0.00194874C13.6563 -0.028813 13.2813 0.346675 13.2813 0.792964V11.7187H24.2075C24.6538 11.7187 25.0288 11.3437 24.9981 10.8984ZM10.9375 14.0625V2.47607C10.9375 2.00976 10.5279 1.62646 10.0664 1.69189C4.24758 2.51416 -0.20018 7.59765 0.0068511 13.6899C0.219742 19.9468 5.60695 25.0776 11.8667 24.999C14.3277 24.9683 16.6016 24.1753 18.4712 22.8491C18.857 22.5757 18.8823 22.0078 18.5479 21.6733L10.9375 14.0625Z" fill="white"/>
</svg>
