<svg width="25" height="25" viewBox="0 0 25 25" fill="none" xmlns="http://www.w3.org/2000/svg">
<path d="M6.8169 1.73339C6.76246 1.67876 6.69778 1.63542 6.62655 1.60585C6.55533 1.57627 6.47897 1.56105 6.40186 1.56105C6.32474 1.56105 6.24838 1.57627 6.17716 1.60585C6.10594 1.63542 6.04125 1.67876 5.98682 1.73339L2.87744 4.8247L1.76905 3.74462C1.71461 3.68999 1.64993 3.64665 1.57871 3.61708C1.50748 3.5875 1.43112 3.57228 1.35401 3.57228C1.27689 3.57228 1.20053 3.5875 1.12931 3.61708C1.05809 3.64665 0.993404 3.68999 0.938969 3.74462L0.172367 4.5122C0.117743 4.56663 0.0744006 4.63131 0.0448272 4.70254C0.0152537 4.77376 3.05176e-05 4.85012 3.05176e-05 4.92724C3.05176e-05 5.00435 0.0152537 5.08071 0.0448272 5.15193C0.0744006 5.22316 0.117743 5.28784 0.172367 5.34227L2.4961 7.65673C2.61208 7.76698 2.766 7.82846 2.92603 7.82846C3.08606 7.82846 3.23997 7.76698 3.35596 7.65673L4.11719 6.89403L7.64258 3.36913C7.75242 3.2592 7.81449 3.11039 7.81531 2.95499C7.81613 2.79959 7.75564 2.65014 7.64697 2.53905L6.8169 1.73339ZM6.8169 9.50634C6.76246 9.45171 6.69778 9.40837 6.62655 9.3788C6.55533 9.34922 6.47897 9.334 6.40186 9.334C6.32474 9.334 6.24838 9.34922 6.17716 9.3788C6.10594 9.40837 6.04125 9.45171 5.98682 9.50634L2.87744 12.6177L1.76905 11.5386C1.71461 11.4839 1.64993 11.4406 1.57871 11.411C1.50748 11.3814 1.43112 11.3662 1.35401 11.3662C1.27689 11.3662 1.20053 11.3814 1.12931 11.411C1.05809 11.4406 0.993404 11.4839 0.938969 11.5386L0.172367 12.3047C0.117743 12.3591 0.0744006 12.4238 0.0448272 12.495C0.0152537 12.5662 3.05176e-05 12.6426 3.05176e-05 12.7197C3.05176e-05 12.7968 0.0152537 12.8732 0.0448272 12.9444C0.0744006 13.0156 0.117743 13.0803 0.172367 13.1348L2.49024 15.4541C2.60614 15.5643 2.75998 15.6258 2.91992 15.6258C3.07987 15.6258 3.23371 15.5643 3.34961 15.4541L4.11621 14.688L7.6416 11.1616C7.75102 11.0524 7.81288 10.9045 7.8137 10.7499C7.81453 10.5954 7.75425 10.4467 7.646 10.3364L6.8169 9.50634ZM3.125 17.9687C1.83155 17.9687 0.752445 19.0185 0.752445 20.3125C0.752445 21.6064 1.83252 22.6562 3.125 22.6562C3.7466 22.6562 4.34275 22.4093 4.78228 21.9698C5.22182 21.5302 5.46875 20.9341 5.46875 20.3125C5.46875 19.6909 5.22182 19.0947 4.78228 18.6552C4.34275 18.2157 3.7466 17.9687 3.125 17.9687ZM24.2187 18.75H10.1562C9.94905 18.75 9.75033 18.8323 9.60382 18.9788C9.45731 19.1253 9.375 19.324 9.375 19.5312V21.0937C9.375 21.3009 9.45731 21.4997 9.60382 21.6462C9.75033 21.7927 9.94905 21.875 10.1562 21.875H24.2187C24.4259 21.875 24.6247 21.7927 24.7712 21.6462C24.9177 21.4997 25 21.3009 25 21.0937V19.5312C25 19.324 24.9177 19.1253 24.7712 18.9788C24.6247 18.8323 24.4259 18.75 24.2187 18.75ZM24.2187 3.12499H10.1562C9.94905 3.12499 9.75033 3.2073 9.60382 3.35381C9.45731 3.50032 9.375 3.69904 9.375 3.90624V5.46874C9.375 5.67594 9.45731 5.87465 9.60382 6.02117C9.75033 6.16768 9.94905 6.24999 10.1562 6.24999H24.2187C24.4259 6.24999 24.6247 6.16768 24.7712 6.02117C24.9177 5.87465 25 5.67594 25 5.46874V3.90624C25 3.69904 24.9177 3.50032 24.7712 3.35381C24.6247 3.2073 24.4259 3.12499 24.2187 3.12499ZM24.2187 10.9375H10.1562C9.94905 10.9375 9.75033 11.0198 9.60382 11.1663C9.45731 11.3128 9.375 11.5115 9.375 11.7187V13.2812C9.375 13.4884 9.45731 13.6872 9.60382 13.8337C9.75033 13.9802 9.94905 14.0625 10.1562 14.0625H24.2187C24.4259 14.0625 24.6247 13.9802 24.7712 13.8337C24.9177 13.6872 25 13.4884 25 13.2812V11.7187C25 11.5115 24.9177 11.3128 24.7712 11.1663C24.6247 11.0198 24.4259 10.9375 24.2187 10.9375Z" fill="white"/>
</svg>
